# xmcd CD database file generated by LOLA_Freedb v0.9beta0
# 
# Track frame offsets:
#      150
#      12730
#      26081
#      41233
#      55195
#      70420
#      82111
#      103497
#      117920
#      136136
# 
# Disc length: 1985 seconds
# 
# Revision: 0 
# Processed by: cddbd v1.5.2PL0 Copyright (c) Steve Scherf et al.
# Submitted via: LOLA_Freedb v0.9beta0
# 
DISCID=9507bf0a
DTITLE=Anne Murray - A Love Song
DYEAR=1974
DGENRE=
TTITLE0=Anne Murray - Love Song
TTITLE1=Anne Murray - Just One Look
TTITLE2=Anne Murray - Another Pot O' Tea
TTITLE3=Anne Murray - Children of My Mind
TTITLE4=Anne Murray - Real Emotion
TTITLE5=Anne Murray - Watching the River Run
TTITLE6=Anne Murray - Backstreet Lovin'
TTITLE7=Anne Murray - Son of a Rotten Gambler
TTITLE8=Anne Murray - You Won't See Me
TTITLE9=Anne Murray - Send a Little Love My Way
EXTD=EMI Canada ST6409 Stereo
EXTT0=
EXTT1=
EXTT2=
EXTT3=
EXTT4=
EXTT5=
EXTT6=
EXTT7=
EXTT8=
EXTT9=
PLAYORDER=
